<svg id="Layer_1" data-name="Layer 1" xmlns="http://www.w3.org/2000/svg" viewBox="0 0 403.16 403.28"><defs><style>.cls-1{fill:#335ee9;}</style></defs><path class="cls-1" d="M963.32,338.51C850.26,336.82,759.21,427.19,758.62,538,758,650.85,847.94,741.74,959.14,741.77c112.18,0,202.63-90.07,202.63-201.85C1161.28,428.15,1072,340.13,963.32,338.51Zm-3.85,388.1C853,726.24,773,639.17,773.66,540.08,773.13,437,858.61,352.36,963,353.44c100.76,1,184.3,85.09,183.67,187.89A186,186,0,0,1,959.47,726.61Z" transform="translate(-758.61 -338.49)"/><path class="cls-1" d="M1135.76,540c.17,85.9-61.64,158.67-146.85,173.08-94.38,16-185.61-48.41-202-142.4a182.14,182.14,0,0,1,1.14-68.44c.7-3.41,2.15-5.38,5.55-6.73C814.81,487.08,836.37,483,859,489c18.56,4.91,33,15.9,45.48,30.11,11.42,13,23.54,25.42,37.79,35.47S971.8,571.21,989.77,569c11.56-1.42,22.06-6,32.51-10.81,23-10.48,45-23,67.9-33.75,9.92-4.67,20-9.14,31.31-9.27a23.92,23.92,0,0,1,3.49.14c8.07,1.13,9.56,2.67,10.52,10.71a23.33,23.33,0,0,1,.25,2.49C1135.78,532.34,1135.76,536.17,1135.76,540Z" transform="translate(-758.61 -338.49)"/></svg>