<svg id="Cubes" xmlns="http://www.w3.org/2000/svg" viewBox="0 0 2201.36 1906.43">
    <g id="Yellow_Cube" data-name="Yellow Cube">
        <polygon points="1100.68 635.48 550.34 317.74 1100.68 0 1651.02 317.74 1100.68 635.48" style="fill:#ff0"/>
        <polygon points="1100.68 1270.96 550.34 953.22 550.34 317.74 1100.68 635.48 1100.68 1270.96"
                 style="fill:#dbd628"/>
        <polygon points="1100.68 1270.96 1651.02 953.22 1651.02 317.74 1100.68 635.48 1100.68 1270.96"
                 style="fill:#fff16c"/>
    </g>
    <g id="Red_Cube" data-name="Red Cube">
        <polygon points="550.34 953.22 0 635.48 550.34 317.74 1100.68 635.48 550.34 953.22" style="fill:red"/>
        <polygon points="550.34 1588.7 0 1270.96 0 635.48 550.34 953.22 550.34 1588.7" style="fill:#c80000"/>
        <polygon points="550.34 1588.7 1100.68 1270.96 1100.68 635.48 550.34 953.22 550.34 1588.7"
                 style="fill:#e80000"/>
    </g>
    <g id="Green_Cube" data-name="Green Cube">
        <polygon points="1651.02 953.22 1100.68 635.48 1651.02 317.74 2201.36 635.48 1651.02 953.22"
                 style="fill:#00f800"/>
        <polygon points="1651.02 1588.7 1100.68 1270.96 1100.68 635.48 1651.02 953.22 1651.02 1588.7"
                 style="fill:#009000"/>
        <polygon points="1651.02 1588.7 2201.36 1270.96 2201.36 635.48 1651.02 953.22 1651.02 1588.7"
                 style="fill:#00c600"/>
    </g>
    <g id="Blue_Cube" data-name="Blue Cube">
        <polygon points="1100.68 1270.96 550.34 953.22 1100.68 635.48 1651.02 953.22 1100.68 1270.96"
                 style="fill:#0af"/>
        <polygon points="1100.68 1906.43 550.34 1588.7 550.34 953.22 1100.68 1270.96 1100.68 1906.43"
                 style="fill:#007093"/>
        <polygon points="1100.68 1906.43 1651.02 1588.7 1651.02 953.22 1100.68 1270.96 1100.68 1906.43"
                 style="fill:#0097d3"/>
    </g>
</svg>
