<svg xmlns="http://www.w3.org/2000/svg" viewBox="0 0 2360.64 2301.35">
    <defs>
        <style>.cls-1{fill:lime;}.cls-2{fill:red;}.cls-3{fill:#0af;}.cls-4{fill:#fff;}</style>
    </defs>
    <g id="Layer_2" data-name="Layer 2">
        <g id="Layer_1-2" data-name="Layer 1">
            <path class="cls-1"
                  d="M231.5,2301.35l64.69-409.66L1379.62,808.25l5.39-10.77H511.79l97-566H2360.64l-70.07,452.78L1293.38,1724.6l-5.39,10.78H2145l-91.64,566Z"/>
            <path class="cls-2"
                  d="M192.92,2262.77l64.68-409.66L1341,769.67l5.39-10.78H473.21l97-566H2322.06L2252,645.7,1254.8,1686l-5.39,10.78h857l-91.63,566Z"/>
            <path class="cls-3"
                  d="M154.34,2224.18,219,1814.53,1302.45,731.09l5.39-10.78H434.63l97-566H2283.48L2213.4,607.11,1216.21,1647.43l-5.39,10.78h857.05l-91.64,566Z"/>
            <path class="cls-1"
                  d="M0,2069.85l64.68-409.66L1148.12,576.75l5.39-10.78H280.29l97-566H2129.14l-70.07,452.78L1061.88,1493.09l-5.39,10.78h857l-91.63,566Z"/>
            <path class="cls-2"
                  d="M38.58,2108.43l64.69-409.66L1186.7,615.33l5.39-10.77H318.88l97-566H2167.73l-70.08,452.78L1100.46,1531.68l-5.39,10.78h857.05l-91.64,566Z"/>
            <path class="cls-3"
                  d="M77.17,2147l64.68-409.65L1225.29,653.92l5.39-10.78H357.46l97-566H2206.31l-70.07,452.77L1139,1570.26l-5.39,10.78H1990.7l-91.63,566Z"/>
            <path class="cls-4"
                  d="M115.75,2185.6l64.68-409.66L1263.87,692.5l5.39-10.77H396l97-566H2244.89l-70.07,452.78L1177.63,1608.84l-5.39,10.78h857l-91.63,566Z"/>
        </g>
    </g>
</svg>
