<svg xmlns="http://www.w3.org/2000/svg" viewBox="0 0 367.8 255.64"><defs><style>.cls-1{fill:#fff;}.cls-2{fill:#2563eb;}</style></defs><g id="Layer_2" data-name="Layer 2"><g id="Layer_1-2" data-name="Layer 1"><path class="cls-1" d="M3.91,254.14a2.32,2.32,0,0,1-1.75-.82c-.82-.9-.88-2.11-.18-3.6,4.78-10.11,10.2-20.64,19.28-28.4,7-6,15.8-8.18,23.55-10.12,19.32-4.84,39.4-7.1,58.31-9,21.14-2.12,43.62-3.76,70.74-5.16,10.11-.53,20.89-1,31.67-1.09,2.22,0,25.93.42,28.35.59l.67,0,5.42.23c4.2.18,8.53.36,12.78.6,22.94,1.33,50.1,3.24,77.63,7.31,9.11,1.35,18,2.81,26.53,5.7a17.61,17.61,0,0,1,8.78,6.89,3.6,3.6,0,0,1,.18,3.75,3.65,3.65,0,0,1-3.21,1.95,3.7,3.7,0,0,1-1.09-.17,44.14,44.14,0,0,0-8.16-1.35c-.67-.06-1.33-.13-2-.21-16.46-1.85-33.31-2.11-49.07-2.11l-7.47,0c-27.27.09-56,1.1-93.27,3.27-35.17,2.05-67.25,5.12-98.06,9.39-25.79,3.57-53.42,7.93-80.75,15.54A101.29,101.29,0,0,0,6,253.27l-.23.16A3.08,3.08,0,0,1,3.91,254.14Z"/><path class="cls-2" d="M205.6,197.44c2.31,0,25.83.42,28.18.58l.67,0c6.15.27,12.19.48,18.21.83,25.92,1.5,51.8,3.49,77.5,7.3,8.87,1.31,17.74,2.74,26.27,5.63a16.05,16.05,0,0,1,8,6.3,2.17,2.17,0,0,1-1.78,3.37,2.51,2.51,0,0,1-.66-.1,58,58,0,0,0-10.42-1.62c-16.37-1.84-32.8-2.11-49.24-2.11h-7.47c-31.15.1-62.27,1.46-93.35,3.27-32.84,1.91-65.6,4.89-98.19,9.4-27.24,3.78-54.39,8.19-80.94,15.59a102.32,102.32,0,0,0-17.08,6c-.42.21-.89.72-1.4.72a.89.89,0,0,1-.65-.33c-.49-.55-.21-1.33.08-1.95,4.85-10.28,10.08-20.37,18.89-27.9,6.57-5.6,14.8-7.77,22.94-9.81,19.08-4.78,38.58-7,58.1-9,23.51-2.37,47.07-3.95,70.67-5.17,10.53-.54,21.05-1,31.6-1.08h.06m0-3h-.07c-10.82.05-21.62.56-31.75,1.09-27.14,1.4-49.64,3-70.81,5.17-19,1.91-39.11,4.18-58.53,9-7.91,2-16.87,4.22-24.15,10.44C11,228.13,5.47,238.82.63,249.08c-1.3,2.74-.3,4.47.42,5.25a3.84,3.84,0,0,0,2.86,1.31,4.56,4.56,0,0,0,2.68-1l.1-.07a99.62,99.62,0,0,1,16.5-5.76c27.24-7.59,54.82-11.94,80.55-15.5,30.77-4.27,62.81-7.34,98-9.39,37.2-2.16,65.94-3.17,93.19-3.26h7.42c15.75,0,32.55.25,48.94,2.09l2,.22a41.73,41.73,0,0,1,7.87,1.29,5.35,5.35,0,0,0,1.53.23,5.17,5.17,0,0,0,4.28-8A18.87,18.87,0,0,0,357.4,209c-8.67-2.94-17.62-4.4-26.8-5.76-27.59-4.09-54.79-6-77.76-7.33-4.25-.24-8.59-.42-12.78-.6l-5.45-.23-.64,0c-2.61-.18-26.4-.59-28.37-.59Z"/><path class="cls-1" d="M199,221l-.91,0a30.78,30.78,0,0,1-17.1-6.18,49.18,49.18,0,0,1-9.72-9c-2.12-2.81-3.49-6.63-4.07-11.36s.58-10.08,3.45-15.82c.86-2,4-9.68,9.21-22.81,3.46-8.66,6.32-15.46,8.49-20.21a.6.6,0,0,0,0-.61.7.7,0,0,0-.56-.33.73.73,0,0,0-.33.1l-2.67,1.56c-4.27,2.52-8.44,4.76-12.4,6.65a24.76,24.76,0,0,1-8.38,2.69.67.67,0,0,0-.51.36q-5,9.12-8.47,15.36l-.36.69c-.92,2.06-12.58,21.1-21.52,31.78-9.43,11.26-16.41,17.81-21.33,20l-.09,0a8.87,8.87,0,0,1-3,.5A23.1,23.1,0,0,1,99.56,212c-5-2.21-8.73-4.5-11.14-6.81a21.81,21.81,0,0,1-5.65-11.08.67.67,0,0,0-.66-.54.61.61,0,0,0-.47.23c-5.35,6.39-9.44,11-12.17,13.75a2.35,2.35,0,0,1-.29.26c-5,4.13-10.26,6.22-15.74,6.22a22.88,22.88,0,0,1-3-.2c-6.49-.86-12.41-4-17.62-9.29s-8.14-11.08-8.72-17.17c-1.3-12.18,1.67-26.64,8.83-43s15.76-29,25.64-37.86l.19-.17a49,49,0,0,1,13.68-8.08,30,30,0,0,1,9.92-2c.53,0,1.06,0,1.57.07a24.38,24.38,0,0,1,9.14,2.7,25.08,25.08,0,0,1,6.57,4.7c1.44,1.53,2.85,3.18,4.21,4.9a.65.65,0,0,0,.54.3.64.64,0,0,0,.61-.39c2.17-4.8,4-8.51,5.34-11l.05-.1.07-.08a3.3,3.3,0,0,1,2.7-1,22.53,22.53,0,0,1,5.48,1,28.61,28.61,0,0,1,11.3,6.22c3.72,3.25,5,7.24,3.6,11.53-.92,3-4,11.18-9,24.18s-9.33,25-12.74,35.87c-3.52,11.25-4.19,16.54-4,19a28.12,28.12,0,0,0,2.9-1.64c3-1.88,7.46-6.44,13.37-13.56a152.42,152.42,0,0,0,10.11-13.79c.08-.16.13-.26.19-.36q3.44-5.1,6.49-10.66c2-3.7,3.83-7,5.34-9.93.61-1.15,1.09-2.08,1.45-2.8a.63.63,0,0,0-.25-.81c-5-3.3-6.91-6.87-5.63-10.62,2.83-10.47,8.67-26,17.35-46.22a3.22,3.22,0,0,1,.67-1,5.55,5.55,0,0,1,4.21-1.59,15,15,0,0,1,4.74.92,30.54,30.54,0,0,1,11.55,7.49c4,3.92,5.4,7.45,4.27,10.51-3.22,7.7-6.94,16.24-11.09,25.44a.67.67,0,0,0,0,.63.7.7,0,0,0,.55.32.67.67,0,0,0,.3-.08c4-2,9.21-5.56,15.47-10.57,9.32-7.45,15.06-11.73,17.55-13.09a3.66,3.66,0,0,1,.61-.27,5.73,5.73,0,0,1,1.75-.26c2.78,0,6.74,1.69,12.11,5.16,7,4.55,9.84,8.1,8.85,11.19-.23.82-1.55,4.24-10.14,23.89-6.31,14.44-12,28.37-17,41.39-5.86,15.35-5.31,18.43-5,19h0a5.47,5.47,0,0,0,2.55.59c3.69,0,8.62-3,14.66-9,6.46-6.43,13.94-16.28,22.21-29.26a1,1,0,0,0,.07-.15c.84-2.49,2.07-5.71,3.67-9.57,1.78-4.29,2.86-6.89,3.22-7.8,1.85-4.34,7.61-18.85,17.16-43.17s18.55-47,26.77-67.47c8.35-20.8,13.17-32,14.71-34.21A2.76,2.76,0,0,1,306,1.5c1.41,0,3.27.8,5.86,2.51a39.12,39.12,0,0,1,9.71,9.48c3.1,4.21,4.2,7.91,3.27,11-1.34,6.21-6.68,21.31-16.33,46.15-9.52,24.51-15.37,39.22-17.39,43.72-.38.77-2.34,5.74-9.64,25.37-1.19,3.2-2.27,6.11-3.26,8.73a.57.57,0,0,0,0,.57.78.78,0,0,0,.62.33.56.56,0,0,0,.5-.31l3-4.5c6-8.95,10.85-16.2,14.48-21.56s7.68-10.79,12.15-16.36,8.16-9.44,11.21-11.82a3.25,3.25,0,0,1,1.18-.61,6.16,6.16,0,0,1,1.65-.21,10.39,10.39,0,0,1,2.23.27c3.9.07,8.1,1.78,12.57,5.11,4.9,3.65,6.83,7,5.9,10.26-2.7,9.12-8.14,19-16.18,29.47a104.38,104.38,0,0,1-27.66,25.13.62.62,0,0,0-.3.67c.46,2.21,2.47,6.36,6,12.33,4.5,7.68,8.46,12.48,11.77,14.26l.18,0c.52,0,2.16-.37,6-3.8s8.2-8.53,13.38-15.55a3.14,3.14,0,0,1,2.35-1.57,2,2,0,0,1,1.93,1.62c1.44,4.87-5.72,31.18-17.84,39a15.61,15.61,0,0,1-8.69,2.73,17.47,17.47,0,0,1-6.55-1.36,46.07,46.07,0,0,1-14.55-9.79,91.73,91.73,0,0,1-11.44-13.26,52,52,0,0,1-3.9-6.38.64.64,0,0,0-.58-.36.66.66,0,0,0-.56.31c-8.88,13.68-13.87,22.91-14.84,27.44l0,.12,0,.12a2.32,2.32,0,0,1-2.41,1.36c-1,0-2.84-.24-8.05-2.3-7.24-2.92-12.36-7.31-15.24-13.06a72.81,72.81,0,0,1-7.62,8.3A114,114,0,0,1,215,215.91,28.61,28.61,0,0,1,199,221Zm-105.46-104c-3,0-6.57,1.81-10.61,5.37-8.22,7.23-15.39,17.45-21.31,30.38a168.29,168.29,0,0,0-9.32,27.4c-2.45,9.77-2.73,13.63-2.53,15.15a.6.6,0,0,0,.54.53h0c.69,0,1.94-.28,4.24-1.63,3.13-1.82,7.41-6,12.71-12.42A154,154,0,0,0,83.07,157.8c4.35-7.47,10-19.82,16.89-36.73a.67.67,0,0,0-.1-.67C98,118.07,95.9,116.94,93.51,116.94Z"/><path class="cls-2" d="M306,3c1.08,0,2.75.75,5,2.26a37.22,37.22,0,0,1,9.33,9.13q4.26,5.76,3,9.74-1.92,9.06-16.26,46t-17.37,43.65q-.83,1.64-9.68,25.46c-1.18,3.2-2.27,6.1-3.25,8.72a2.16,2.16,0,0,0,2.06,2.93,2.08,2.08,0,0,0,1.75-1l3-4.5q9.13-13.66,14.48-21.55t12.08-16.27q6.51-8.1,11-11.58a2.1,2.1,0,0,1,.66-.35,4.81,4.81,0,0,1,1.25-.15,9.24,9.24,0,0,1,1.91.23,2.35,2.35,0,0,0,.37.05q5.28.08,11.62,4.8t5.36,8.65q-4,13.45-15.93,29A102.35,102.35,0,0,1,299.12,163a2.14,2.14,0,0,0-1,2.25q.75,3.59,6.14,12.79,7,11.94,12.36,14.82a2,2,0,0,0,.89.2c1.54,0,3.88-1.39,7-4.18q5.7-5.07,13.59-15.78c.48-.66.86-1,1.14-1,2.81,0-4,29.65-16.72,37.88a14.1,14.1,0,0,1-7.88,2.49,16,16,0,0,1-6-1.25,44.37,44.37,0,0,1-14.06-9.47,89.82,89.82,0,0,1-11.26-13,47.65,47.65,0,0,1-3.78-6.18,2.15,2.15,0,0,0-3.74-.21q-13.54,20.85-15.06,28c-.11.27-.45.41-1,.41-1.3,0-3.79-.73-7.49-2.2Q241,204,237.16,194.75c-.14-.26-.26-.52-.38-.79a75.13,75.13,0,0,1-9,10.06,110.53,110.53,0,0,1-13.65,10.64,27,27,0,0,1-15.2,4.82l-.86,0a29.18,29.18,0,0,1-16.27-5.9,46.79,46.79,0,0,1-9.4-8.72q-3-3.9-3.78-10.63t3.3-15q1.36-3.15,9.26-22.92,5.21-13,8.46-20.14a2.14,2.14,0,0,0-3-2.77c-.83.47-1.72,1-2.69,1.56q-6.39,3.78-12.29,6.59a23.29,23.29,0,0,1-7.83,2.55,2.15,2.15,0,0,0-1.72,1.14c-3.34,6.08-6.16,11.18-8.48,15.35l-.37.74c-.87,1.93-12.53,21-21.34,31.49q-13.78,16.47-20.79,19.63a7.34,7.34,0,0,1-2.53.41,21.9,21.9,0,0,1-8.45-2.26c-4.86-2.15-8.42-4.33-10.71-6.52a20.35,20.35,0,0,1-5.23-10.32,2.15,2.15,0,0,0-2.12-1.72,2.09,2.09,0,0,0-1.62.77q-8,9.57-12.09,13.66l-.17.16q-7.08,5.87-14.79,5.87a19.9,19.9,0,0,1-2.76-.19q-9.27-1.23-16.74-8.85T25.63,187.2q-1.92-18,8.72-42.2t25.26-37.35a.69.69,0,0,1,.13-.11A46.81,46.81,0,0,1,73,99.7a28.36,28.36,0,0,1,9.41-1.92c.49,0,1,0,1.43.06a23,23,0,0,1,8.58,2.54,23.45,23.45,0,0,1,6.18,4.4q2.13,2.27,4.12,4.8l0,0a2.09,2.09,0,0,0,1.68.82,2.17,2.17,0,0,0,2-1.27q3.24-7.19,5.29-10.92.33-.45,1.5-.45a21.5,21.5,0,0,1,5.09.93,27,27,0,0,1,10.7,5.9q4.95,4.32,3.16,10-1.38,4.53-9,24.09t-12.77,36q-5.15,16.41-3.77,20.94c0,.2.2.3.47.3q1.06,0,4.47-2.16,4.66-2.94,13.73-13.86a157.87,157.87,0,0,0,10.26-14c.06-.11.1-.22.17-.33q3.43-5.09,6.52-10.71t5.35-9.95c.61-1.16,1.09-2.1,1.46-2.82a2.12,2.12,0,0,0-.77-2.74q-6.61-4.35-5-8.92,4.23-15.7,17.29-46.08a1.85,1.85,0,0,1,.37-.58,4.14,4.14,0,0,1,3.13-1.13,13.71,13.71,0,0,1,4.26.84,28.92,28.92,0,0,1,11,7.14q5.28,5.22,3.91,8.92-4.82,11.52-11,25.35a2.16,2.16,0,0,0,2,3.06,2.24,2.24,0,0,0,1-.24q6.17-3.09,15.73-10.74,13.74-11,17.33-13a2.28,2.28,0,0,1,.36-.15,4,4,0,0,1,1.28-.19q3.69,0,11.3,4.92,9.33,6,8.23,9.47-.54,1.92-10.08,23.75t-17,41.45q-7.47,19.64-4.32,20.87a7,7,0,0,0,3.23.75q6.18,0,15.71-9.47,9.87-9.81,22.43-29.52a2.52,2.52,0,0,0,.22-.47q1.24-3.69,3.64-9.47,2.67-6.45,3.23-7.83,2.74-6.45,17.15-43.17t26.77-67.46Q302.64,6.7,304.83,3.54A1.29,1.29,0,0,1,306,3M50.32,197.28a11,11,0,0,0,5-1.84q4.94-2.88,13.11-12.77a155,155,0,0,0,16-24.15q6.59-11.28,17-36.88a2.19,2.19,0,0,0-.32-2.19c-2.18-2.67-4.68-4-7.52-4q-5.08,0-11.6,5.74Q69.28,132.3,60.22,152.06a168.62,168.62,0,0,0-9.4,27.66q-3,12.12-2.56,15.71a2.08,2.08,0,0,0,2,1.84h.08M306,0V0a4.25,4.25,0,0,0-3.62,1.85c-1,1.5-3.72,6.75-14.86,34.48-8.23,20.48-17.24,43.19-26.78,67.49s-15.3,38.8-17.12,43.09l0,0v0c-.26.65-1,2.53-3.21,7.79-1.59,3.84-2.83,7.06-3.68,9.57-8.19,12.84-15.58,22.57-22,28.91-7.15,7.11-11.34,8.6-13.6,8.6a4.49,4.49,0,0,1-1.18-.15c0-1.4.58-5.61,5.08-17.4,4.95-13,10.66-26.9,17-41.32,9.44-21.59,10-23.43,10.22-24.09,1.53-4.95-4.26-9.47-9.48-12.85-5.7-3.68-9.81-5.4-12.93-5.4a6.93,6.93,0,0,0-2.22.34,4.77,4.77,0,0,0-.85.37c-2.58,1.41-8.39,5.74-17.77,13.24a110.78,110.78,0,0,1-13,9.23c3.74-8.35,7.12-16.13,10.06-23.16l0-.06,0-.06c1.35-3.66-.2-7.73-4.62-12.1a32,32,0,0,0-12.13-7.84,16.53,16.53,0,0,0-5.22-1,7,7,0,0,0-5.29,2,4.67,4.67,0,0,0-1,1.48c-8.7,20.23-14.56,35.83-17.41,46.38-1,3-.79,7.42,5.61,11.88-.3.59-.66,1.29-1.08,2.09-1.51,2.88-3.3,6.21-5.32,9.9s-4.15,7.18-6.38,10.47l0,.06,0,.07a3.72,3.72,0,0,0-.21.39,154.56,154.56,0,0,1-10,13.58c-7.24,8.72-11.08,12-13,13.25l-.56.34c.27-2.75,1.21-7.57,3.86-16,3.39-10.82,7.67-22.86,12.69-35.77,5.15-13.22,8.12-21.17,9.07-24.31,1.07-3.38,1.25-8.44-4.05-13.08a30.09,30.09,0,0,0-11.89-6.54,23.61,23.61,0,0,0-5.88-1,4.56,4.56,0,0,0-3.9,1.65l-.13.17-.11.19c-1.26,2.32-2.88,5.64-4.82,9.88-1.13-1.39-2.29-2.72-3.46-4a26.25,26.25,0,0,0-7-5,25.64,25.64,0,0,0-9.71-2.87c-.55,0-1.12-.08-1.7-.08A31.43,31.43,0,0,0,72,96.87a50.21,50.21,0,0,0-14.11,8.33l-.26.22c-10,9-18.79,21.93-26,38.37s-10.28,31.28-9,43.73c.61,6.41,3.69,12.49,9.14,18s11.67,8.82,18.5,9.73a23.92,23.92,0,0,0,3.15.21c5.84,0,11.45-2.21,16.7-6.56l.39-.36C73.1,206,76.85,201.79,81.7,196a22.53,22.53,0,0,0,5.64,10.17l0,0,0,0C90,208.72,93.73,211,99,213.35a24.5,24.5,0,0,0,9.67,2.52,10.4,10.4,0,0,0,3.57-.59l.1,0,.09,0c5.13-2.32,12.28-9,21.86-20.44,8.9-10.62,20.49-29.53,21.73-32.09l.33-.66c2.27-4.08,5-9.11,8.26-14.95a27.44,27.44,0,0,0,8.41-2.79c4-1.91,8.22-4.16,12.53-6.71l.37-.23c-2,4.56-4.51,10.56-7.43,17.88-5.18,12.95-8.27,20.61-9.2,22.77-3,6-4.17,11.55-3.55,16.59s2.07,9.06,4.35,12.08a49.56,49.56,0,0,0,10,9.32,32.31,32.31,0,0,0,18,6.49l1,0a30,30,0,0,0,16.86-5.33,115,115,0,0,0,14-10.92,73.53,73.53,0,0,0,6.37-6.75c3.16,5.12,8.16,9.07,14.91,11.78,5.4,2.15,7.44,2.42,8.61,2.42a3.77,3.77,0,0,0,3.8-2.3l.1-.24.05-.25c.63-2.91,3.55-9.74,13.86-25.73a59,59,0,0,0,3.33,5.27,93,93,0,0,0,11.63,13.48,47.34,47.34,0,0,0,15,10.09,18.89,18.89,0,0,0,7.12,1.48,17.11,17.11,0,0,0,9.53-3c7.46-4.83,12.35-15.5,14.6-21.44,2.66-7,4.83-15.88,3.84-19.26a3.54,3.54,0,0,0-3.36-2.69,4.67,4.67,0,0,0-3.57,2.18c-5.12,6.94-9.55,12.09-13.17,15.32-2.93,2.62-4.35,3.23-4.83,3.38-2.15-1.31-5.69-4.73-10.83-13.5-3.75-6.39-5.16-9.65-5.65-11.29A106,106,0,0,0,328.76,140c8.15-10.58,13.67-20.66,16.42-29.94,1.12-3.9-1.05-7.9-6.44-11.91-4.68-3.48-9.13-5.3-13.25-5.39a11.5,11.5,0,0,0-2.44-.28,7.8,7.8,0,0,0-2,.26,4.89,4.89,0,0,0-1.71.88c-3.19,2.48-6.93,6.43-11.45,12.06s-8.62,11.15-12.23,16.46c-3.44,5.08-8,11.82-13.48,20.06l.73-1.95c7.62-20.51,9.25-24.57,9.55-25.17l0,0,0-.06c2-4.53,7.89-19.26,17.42-43.8,9.65-24.83,15-40,16.38-46.32,1-3.57-.14-7.7-3.51-12.28a40.73,40.73,0,0,0-10.09-9.84C309.78.85,307.72,0,306,0ZM51.19,194.09c0-1.76.5-5.54,2.54-13.64A167,167,0,0,1,63,153.29c5.82-12.71,12.87-22.76,20.93-29.86,3.76-3.31,7-5,9.62-5A6.39,6.39,0,0,1,98.38,121c-6.75,16.61-12.33,28.73-16.59,36l0,0,0,0a152.94,152.94,0,0,1-15.67,23.69c-5.2,6.29-9.34,10.35-12.31,12.09a14,14,0,0,1-2.58,1.24Z"/></g></g></svg>